<svg width="50" height="40" viewBox="0 0 50 40" fill="none" xmlns="http://www.w3.org/2000/svg">
<g filter="url(#filter0_d_23_584)">
<path d="M44.9811 13.3265L43.9054 10.8019L41.9981 6.325C40.3606 2.48238 36.4549 0 32.0459 0H19.8916C15.4835 0 11.5769 2.48238 9.93943 6.325L8.03207 10.8019L6.95637 13.3265C4.64801 14.1504 3 16.2312 3 18.6875V23C3 24.4483 3.58953 25.7555 4.53125 26.7671V31.625C4.53125 33.2125 5.90268 34.5 7.59375 34.5H10.6562C12.3473 34.5 13.7188 33.2125 13.7188 31.625V28.75H38.2188V31.625C38.2188 33.2125 39.5902 34.5 41.2812 34.5H44.3438C46.0348 34.5 47.4062 33.2125 47.4062 31.625V26.7671C48.348 25.7564 48.9375 24.4492 48.9375 23V18.6875C48.9375 16.2312 47.2895 14.1504 44.9811 13.3265ZM15.6261 8.46059C16.3238 6.82363 18.0129 5.75 19.8916 5.75H32.0459C33.9246 5.75 35.6137 6.82363 36.3114 8.46059L38.2188 12.9375H13.7188L15.6261 8.46059ZM10.6562 22.982C8.81875 22.982 7.59375 21.8356 7.59375 20.116C7.59375 18.3964 8.81875 17.25 10.6562 17.25C12.4937 17.25 15.25 19.8294 15.25 21.549C15.25 23.2686 12.4937 22.982 10.6562 22.982ZM41.2812 22.982C39.4437 22.982 36.6875 23.2686 36.6875 21.549C36.6875 19.8294 39.4437 17.25 41.2812 17.25C43.1188 17.25 44.3438 18.3964 44.3438 20.116C44.3438 21.8356 43.1188 22.982 41.2812 22.982Z" fill="#C2AAB1"/>
<path d="M44.5211 13.5225L44.6069 13.7239L44.8131 13.7974C46.9471 14.5591 48.4375 16.4676 48.4375 18.6875V23C48.4375 24.3081 47.9064 25.4969 47.0404 26.4263L46.9062 26.5703V26.7671V31.625C46.9062 32.9071 45.7889 34 44.3438 34H41.2812C39.8361 34 38.7188 32.9071 38.7188 31.625V28.75V28.25H38.2188H13.7188H13.2188V28.75V31.625C13.2188 32.9071 12.1014 34 10.6562 34H7.59375C6.14859 34 5.03125 32.9071 5.03125 31.625V26.7671V26.5704L4.89722 26.4265C4.03109 25.496 3.5 24.3072 3.5 23V18.6875C3.5 16.4676 4.9904 14.5591 7.12444 13.7974L7.33056 13.7239L7.41635 13.5225L8.49206 10.9979L8.49206 10.9979L10.3994 6.52101C10.3994 6.521 10.3994 6.52099 10.3994 6.52098C11.9528 2.87568 15.6695 0.5 19.8916 0.5H32.0459C36.269 0.5 39.9847 2.87567 41.5381 6.52101L43.4454 10.9979L43.9054 10.8019L43.4454 10.9979L44.5211 13.5225ZM15.1661 8.26455L15.1661 8.26461L13.2588 12.7415L12.9622 13.4375H13.7188H38.2188H38.9753L38.6787 12.7415L36.7714 8.26461L36.7714 8.26455C35.9896 6.43033 34.1105 5.25 32.0459 5.25H19.8916C17.827 5.25 15.9479 6.43033 15.1661 8.26455ZM7.09375 20.116C7.09375 21.0998 7.44731 21.9535 8.09429 22.5589C8.73827 23.1616 9.63343 23.482 10.6562 23.482C10.8588 23.482 11.081 23.486 11.3149 23.4903C12.0822 23.5042 12.976 23.5203 13.7192 23.4044C14.2095 23.3279 14.7067 23.1858 15.0903 22.8986C15.502 22.5904 15.75 22.1384 15.75 21.549C15.75 20.9945 15.5317 20.4207 15.2206 19.8966C14.9053 19.3656 14.4714 18.8459 13.9838 18.3896C13.496 17.9331 12.9425 17.5288 12.3799 17.2363C11.8227 16.9466 11.2247 16.75 10.6562 16.75C9.63343 16.75 8.73827 17.0704 8.09429 17.6731C7.44731 18.2786 7.09375 19.1322 7.09375 20.116ZM36.1875 21.549C36.1875 22.1384 36.4355 22.5904 36.8472 22.8986C37.2308 23.1858 37.728 23.3279 38.2183 23.4044C38.9615 23.5203 39.8553 23.5042 40.6226 23.4903C40.8565 23.486 41.0787 23.482 41.2812 23.482C42.3041 23.482 43.1992 23.1616 43.8432 22.5589C44.4902 21.9535 44.8438 21.0998 44.8438 20.116C44.8438 19.1322 44.4902 18.2786 43.8432 17.6731C43.1992 17.0704 42.3041 16.75 41.2812 16.75C40.7128 16.75 40.1148 16.9466 39.5576 17.2363C38.995 17.5288 38.4415 17.9331 37.9537 18.3896C37.4661 18.8459 37.0322 19.3656 36.7169 19.8966C36.4058 20.4207 36.1875 20.9945 36.1875 21.549Z" stroke="#FFE6ED"/>
</g>
<defs>
<filter id="filter0_d_23_584" x="-1" y="0" width="53.9375" height="42.5" filterUnits="userSpaceOnUse" color-interpolation-filters="sRGB">
<feFlood flood-opacity="0" result="BackgroundImageFix"/>
<feColorMatrix in="SourceAlpha" type="matrix" values="0 0 0 0 0 0 0 0 0 0 0 0 0 0 0 0 0 0 127 0" result="hardAlpha"/>
<feOffset dy="4"/>
<feGaussianBlur stdDeviation="2"/>
<feComposite in2="hardAlpha" operator="out"/>
<feColorMatrix type="matrix" values="0 0 0 0 0 0 0 0 0 0 0 0 0 0 0 0 0 0 0.25 0"/>
<feBlend mode="normal" in2="BackgroundImageFix" result="effect1_dropShadow_23_584"/>
<feBlend mode="normal" in="SourceGraphic" in2="effect1_dropShadow_23_584" result="shape"/>
</filter>
</defs>
</svg>
