<svg width="43" height="43" viewBox="0 0 43 43" fill="none" xmlns="http://www.w3.org/2000/svg">
<path d="M42.1854 16.0242C42.5129 15.7639 43 16.0074 43 16.4189V33.5938C43 35.8193 41.1943 37.625 38.9688 37.625H4.03125C1.80566 37.625 0 35.8193 0 33.5938V16.4273C0 16.0074 0.478711 15.7723 0.814648 16.0326C2.6959 17.4939 5.19023 19.35 13.7566 25.5732C15.5287 26.8666 18.5186 29.5877 21.5 29.5709C24.4982 29.5961 27.5469 26.8162 29.2518 25.5732C37.8182 19.35 40.3041 17.4855 42.1854 16.0242ZM21.5 26.875C23.4484 26.9086 26.2535 24.4227 27.6645 23.398C38.8092 15.3104 39.6574 14.6049 42.2273 12.5893C42.7145 12.2113 43 11.6234 43 11.002V9.40625C43 7.18066 41.1943 5.375 38.9688 5.375H4.03125C1.80566 5.375 0 7.18066 0 9.40625V11.002C0 11.6234 0.285547 12.2029 0.772656 12.5893C3.34258 14.5965 4.19082 15.3104 15.3355 23.398C16.7465 24.4227 19.5516 26.9086 21.5 26.875Z" fill="#C2AAB1"/>
</svg>
