<svg width="49" height="49" viewBox="0 0 49 49" fill="none" xmlns="http://www.w3.org/2000/svg">
<g clip-path="url(#clip0_23_607)">
<g filter="url(#filter0_d_23_607)">
<path d="M35.9021 27.5625L37.263 18.6946H28.754V12.94C28.754 10.5139 29.9426 8.14912 33.7535 8.14912H37.6219V0.599102C37.6219 0.599102 34.1115 0 30.7552 0C23.7478 0 19.1674 4.2473 19.1674 11.9361V18.6946H11.3781V27.5625H19.1674V49H28.754V27.5625H35.9021Z" fill="#C2AAB1"/>
<path d="M28.254 27.5625V48.5H19.6674V27.5625V27.0625H19.1674H11.8781V19.1946H19.1674H19.6674V18.6946V11.9361C19.6674 8.19149 20.7807 5.34644 22.6872 3.43814C24.5942 1.52933 27.3525 0.5 30.7552 0.5C32.4067 0.5 34.1025 0.64761 35.3898 0.796251C36.0323 0.870447 36.5708 0.944621 36.9481 1.00016C37.0105 1.00935 37.0685 1.01803 37.1219 1.02611V7.64912H33.7535C31.7395 7.64912 30.3366 8.27849 29.4465 9.30773C28.5681 10.3234 28.254 11.6543 28.254 12.94V18.6946V19.1946H28.754H36.6804L35.4729 27.0625H28.754H28.254V27.5625Z" stroke="#C2AAB1"/>
</g>
</g>
<defs>
<filter id="filter0_d_23_607" x="7.37814" y="0" width="34.2437" height="57" filterUnits="userSpaceOnUse" color-interpolation-filters="sRGB">
<feFlood flood-opacity="0" result="BackgroundImageFix"/>
<feColorMatrix in="SourceAlpha" type="matrix" values="0 0 0 0 0 0 0 0 0 0 0 0 0 0 0 0 0 0 127 0" result="hardAlpha"/>
<feOffset dy="4"/>
<feGaussianBlur stdDeviation="2"/>
<feComposite in2="hardAlpha" operator="out"/>
<feColorMatrix type="matrix" values="0 0 0 0 0 0 0 0 0 0 0 0 0 0 0 0 0 0 0.25 0"/>
<feBlend mode="normal" in2="BackgroundImageFix" result="effect1_dropShadow_23_607"/>
<feBlend mode="normal" in="SourceGraphic" in2="effect1_dropShadow_23_607" result="shape"/>
</filter>
<clipPath id="clip0_23_607">
<rect width="49" height="49" fill="white"/>
</clipPath>
</defs>
</svg>
