<svg width="32" height="32" viewBox="0 0 32 32" fill="none" xmlns="http://www.w3.org/2000/svg">
<path d="M29.4469 21.458L29.4469 21.4581L27.4469 29.9581L27.9336 30.0726L27.4469 29.9581C27.2343 30.8615 26.4281 31.5 25.5 31.5H12.5C12.1846 31.5 11.8736 31.4254 11.5924 31.2822C11.3113 31.1391 11.068 30.9314 10.8825 30.6763L2.88269 19.6764C2.23303 18.7831 2.43055 17.5322 3.32378 16.8826C4.21713 16.2329 5.46798 16.4304 6.11763 17.3237L8.09563 20.0436L9 21.2871V19.7495V2.5C9 1.39545 9.8954 0.5 11 0.5C12.1046 0.5 13 1.39545 13 2.5V15V15.5H13.5H14H14.5V15V12.5C14.5 11.3954 15.3954 10.5 16.5 10.5C17.6046 10.5 18.5 11.3954 18.5 12.5V15V15.5H19H19.5H20V15V13.5C20 12.3954 20.8954 11.5 22 11.5C23.1046 11.5 24 12.3954 24 13.5V15V15.5H24.5H25H25.5V15C25.5 13.8954 26.3954 13 27.5 13C28.6046 13 29.5 13.8954 29.5 15V21C29.5 21.1543 29.4822 21.308 29.4469 21.458ZM14.5 20V19.5H14H13.5H13V20V26V26.5H13.5H14H14.5V26V20ZM20 20V19.5H19.5H19H18.5V20V26V26.5H19H19.5H20V26V20ZM25.5 20V19.5H25H24.5H24V20V26V26.5H24.5H25H25.5V26V20Z" fill="#C2AAB1" stroke="#C2AAB1"/>
</svg>
