<svg width="46" height="47" viewBox="0 0 46 47" fill="none" xmlns="http://www.w3.org/2000/svg">
<g clip-path="url(#clip0_23_609)">
<g filter="url(#filter0_d_23_609)">
<path d="M23.009 13.1679C17.2949 13.1679 12.6859 17.7769 12.6859 23.491C12.6859 29.2051 17.2949 33.814 23.009 33.814C28.723 33.814 33.332 29.2051 33.332 23.491C33.332 17.7769 28.723 13.1679 23.009 13.1679ZM23.009 30.2023C19.3164 30.2023 16.2976 27.1926 16.2976 23.491C16.2976 19.7894 19.3074 16.7797 23.009 16.7797C26.7105 16.7797 29.7203 19.7894 29.7203 23.491C29.7203 27.1926 26.7016 30.2023 23.009 30.2023ZM36.1621 12.7457C36.1621 14.0844 35.084 15.1535 33.7543 15.1535C32.4156 15.1535 31.3465 14.0754 31.3465 12.7457C31.3465 11.416 32.4246 10.3379 33.7543 10.3379C35.084 10.3379 36.1621 11.416 36.1621 12.7457ZM42.9992 15.1894C42.8465 11.964 42.1098 9.10701 39.7469 6.7531C37.393 4.39919 34.5359 3.66248 31.3105 3.50076C27.9863 3.31208 18.0227 3.31208 14.6984 3.50076C11.482 3.65349 8.62499 4.39021 6.2621 6.74412C3.89921 9.09802 3.17148 11.9551 3.00976 15.1804C2.82109 18.5047 2.82109 28.4683 3.00976 31.7926C3.16249 35.0179 3.89921 37.875 6.2621 40.2289C8.62499 42.5828 11.473 43.3195 14.6984 43.4812C18.0227 43.6699 27.9863 43.6699 31.3105 43.4812C34.5359 43.3285 37.393 42.5918 39.7469 40.2289C42.1008 37.875 42.8375 35.0179 42.9992 31.7926C43.1879 28.4683 43.1879 18.5136 42.9992 15.1894ZM38.7047 35.3593C38.0039 37.1203 36.6473 38.4769 34.8773 39.1867C32.2269 40.2379 25.9379 39.9953 23.009 39.9953C20.0801 39.9953 13.782 40.2289 11.1406 39.1867C9.37968 38.4859 8.02304 37.1293 7.31328 35.3593C6.2621 32.709 6.50468 26.4199 6.50468 23.491C6.50468 20.5621 6.27109 14.264 7.31328 11.6226C8.01406 9.86169 9.3707 8.50505 11.1406 7.79529C13.791 6.74412 20.0801 6.98669 23.009 6.98669C25.9379 6.98669 32.2359 6.7531 34.8773 7.79529C36.6383 8.49607 37.9949 9.85271 38.7047 11.6226C39.7559 14.273 39.5133 20.5621 39.5133 23.491C39.5133 26.4199 39.7559 32.7179 38.7047 35.3593Z" fill="#C2AAB1"/>
<path d="M42.4998 15.2131L42.5 15.2178C42.6876 18.5231 42.6876 28.4589 42.5 31.7642L42.4998 31.7675C42.3412 34.9305 41.6241 37.6445 39.3933 39.8753L39.3926 39.876C37.1621 42.1151 34.4487 42.8321 31.2869 42.9818L31.2822 42.982C27.9769 43.1696 18.0321 43.1696 14.7268 42.982L14.7235 42.9818C11.5612 42.8233 8.85528 42.1064 6.61498 39.8747C4.37589 37.6441 3.65892 34.9307 3.50922 31.7689L3.50896 31.7642C3.32136 28.4589 3.32136 18.5141 3.50896 15.2088L3.50897 15.2088L3.50913 15.2055C3.66778 12.0414 4.37635 9.32846 6.61498 7.09834C8.85507 4.86677 11.5696 4.1499 14.7221 4.00019L14.7221 4.00022L14.7268 3.99995C18.0321 3.81235 27.9769 3.81235 31.2822 3.99996L31.2855 4.00013C34.4485 4.15872 37.1625 4.87585 39.3933 7.10665L39.394 7.10733C41.6331 9.33791 42.3501 12.0512 42.4998 15.2131ZM35.0617 39.6515L35.0634 39.6508C36.9596 38.8904 38.4175 37.4333 39.1692 35.5442C39.7319 34.1303 39.9325 31.8096 40.0029 29.5486C40.0539 27.9129 40.0371 26.2507 40.0235 24.9083C40.0181 24.3791 40.0133 23.8996 40.0133 23.491C40.0133 23.0823 40.0181 22.6029 40.0235 22.0739C40.0371 20.7322 40.0539 19.0715 40.0029 17.4368C39.9325 15.1766 39.7319 12.8564 39.1695 11.4383L39.1688 11.4365C38.4084 9.54035 36.9513 8.08251 35.0622 7.33072L35.0608 7.33018C33.6477 6.77262 31.3279 6.57199 29.0668 6.50042C27.4188 6.44826 25.7446 6.46431 24.3969 6.47723C23.8795 6.48219 23.4102 6.48669 23.009 6.48669C22.6003 6.48669 22.1209 6.48184 21.5919 6.47648C20.2502 6.4629 18.5895 6.44608 16.9548 6.49704C14.6946 6.5675 12.3744 6.76808 10.9563 7.3305L10.9545 7.33121C9.05833 8.09161 7.6005 9.54865 6.84871 11.4378L6.84817 11.4391C6.29061 12.8522 6.08998 15.172 6.01841 17.4332C5.96625 19.0812 5.9823 20.7554 5.99522 22.1031C6.00018 22.6205 6.00468 23.0898 6.00468 23.491C6.00468 23.8997 5.99983 24.3791 5.99447 24.9081C5.98089 26.2498 5.96407 27.9105 6.01503 29.5452C6.08549 31.8054 6.28607 34.1256 6.84849 35.5437L6.8492 35.5454C7.6096 37.4416 9.06663 38.8995 10.9557 39.6513L10.9571 39.6518C12.3702 40.2094 14.69 40.41 16.9512 40.4816C18.5992 40.5337 20.2734 40.5177 21.621 40.5048C22.1385 40.4998 22.6078 40.4953 23.009 40.4953C23.4177 40.4953 23.8971 40.5001 24.4261 40.5055C25.7678 40.5191 27.4284 40.5359 29.0632 40.4849C31.3234 40.4145 33.6436 40.2139 35.0617 39.6515ZM13.1859 23.491C13.1859 18.0531 17.5711 13.6679 23.009 13.6679C28.4469 13.6679 32.832 18.0531 32.832 23.491C32.832 28.9289 28.4469 33.314 23.009 33.314C17.5711 33.314 13.1859 28.9289 13.1859 23.491ZM15.7976 23.491C15.7976 27.4691 19.0407 30.7023 23.009 30.7023C26.9773 30.7023 30.2203 27.4691 30.2203 23.491C30.2203 19.5133 26.9867 16.2797 23.009 16.2797C19.0313 16.2797 15.7976 19.5133 15.7976 23.491ZM35.6621 12.7457C35.6621 13.807 34.8091 14.6535 33.7543 14.6535C32.693 14.6535 31.8465 13.8004 31.8465 12.7457C31.8465 11.6921 32.7007 10.8379 33.7543 10.8379C34.8078 10.8379 35.6621 11.6921 35.6621 12.7457Z" stroke="#C2AAB1"/>
</g>
</g>
<defs>
<filter id="filter0_d_23_609" x="-1.13174" y="3.35925" width="48.2725" height="48.2635" filterUnits="userSpaceOnUse" color-interpolation-filters="sRGB">
<feFlood flood-opacity="0" result="BackgroundImageFix"/>
<feColorMatrix in="SourceAlpha" type="matrix" values="0 0 0 0 0 0 0 0 0 0 0 0 0 0 0 0 0 0 127 0" result="hardAlpha"/>
<feOffset dy="4"/>
<feGaussianBlur stdDeviation="2"/>
<feComposite in2="hardAlpha" operator="out"/>
<feColorMatrix type="matrix" values="0 0 0 0 0 0 0 0 0 0 0 0 0 0 0 0 0 0 0.25 0"/>
<feBlend mode="normal" in2="BackgroundImageFix" result="effect1_dropShadow_23_609"/>
<feBlend mode="normal" in="SourceGraphic" in2="effect1_dropShadow_23_609" result="shape"/>
</filter>
<clipPath id="clip0_23_609">
<rect width="46" height="46" fill="white" transform="translate(0 0.5)"/>
</clipPath>
</defs>
</svg>
