<svg width="46" height="47" viewBox="0 0 46 47" fill="none" xmlns="http://www.w3.org/2000/svg">
<g clip-path="url(#clip0_23_611)">
<g filter="url(#filter0_d_23_611)">
<path d="M11.8845 40.75H3.53984V13.8778H11.8845V40.75ZM7.7077 10.2121C5.03934 10.2121 2.875 8.00197 2.875 5.33361C2.875 4.0519 3.38416 2.82269 4.29046 1.91638C5.19677 1.01007 6.42598 0.500916 7.7077 0.500916C8.98941 0.500916 10.2186 1.01007 11.1249 1.91638C12.0312 2.82269 12.5404 4.0519 12.5404 5.33361C12.5404 8.00197 10.3752 10.2121 7.7077 10.2121ZM43.116 40.75H34.7893V27.6688C34.7893 24.5512 34.7264 20.5531 30.4507 20.5531C26.1122 20.5531 25.4473 23.9403 25.4473 27.4442V40.75H17.1116V13.8778H25.1149V17.5434H25.2317C26.3458 15.432 29.0671 13.2039 33.1272 13.2039C41.5725 13.2039 43.125 18.7653 43.125 25.9887V40.75H43.116Z" fill="#C2AAB1"/>
<path d="M42.625 25.9887V40.25H35.2893V27.6688C35.2893 26.1318 35.28 24.2519 34.6883 22.7578C34.3867 21.9963 33.9253 21.3095 33.2185 20.8165C32.5107 20.3227 31.5994 20.0531 30.4507 20.0531C29.3011 20.0531 28.3585 20.2778 27.5965 20.6997C26.8315 21.1232 26.278 21.7292 25.8843 22.4432C25.1097 23.8477 24.9473 25.683 24.9473 27.4442V40.25H17.6116V14.3778H24.6149V17.5434V18.0434H25.1149H25.2317H25.5332L25.6739 17.7767C26.7056 15.8215 29.2614 13.7039 33.1272 13.7039C37.2265 13.7039 39.5409 15.0428 40.87 17.1539C42.2325 19.3181 42.625 22.3878 42.625 25.9887ZM11.3845 40.25H4.03984V14.3778H11.3845V40.25ZM7.7077 9.71213C5.32159 9.71213 3.375 7.73198 3.375 5.33361C3.375 4.18451 3.83148 3.08247 4.64402 2.26993C5.45656 1.45739 6.55859 1.00092 7.7077 1.00092C8.8568 1.00092 9.95884 1.45739 10.7714 2.26993C11.5839 3.08247 12.0404 4.18451 12.0404 5.33361C12.0404 7.73192 10.093 9.71213 7.7077 9.71213Z" stroke="#C2AAB1"/>
</g>
</g>
<defs>
<filter id="filter0_d_23_611" x="-1.125" y="0.500916" width="48.25" height="48.2491" filterUnits="userSpaceOnUse" color-interpolation-filters="sRGB">
<feFlood flood-opacity="0" result="BackgroundImageFix"/>
<feColorMatrix in="SourceAlpha" type="matrix" values="0 0 0 0 0 0 0 0 0 0 0 0 0 0 0 0 0 0 127 0" result="hardAlpha"/>
<feOffset dy="4"/>
<feGaussianBlur stdDeviation="2"/>
<feComposite in2="hardAlpha" operator="out"/>
<feColorMatrix type="matrix" values="0 0 0 0 0 0 0 0 0 0 0 0 0 0 0 0 0 0 0.25 0"/>
<feBlend mode="normal" in2="BackgroundImageFix" result="effect1_dropShadow_23_611"/>
<feBlend mode="normal" in="SourceGraphic" in2="effect1_dropShadow_23_611" result="shape"/>
</filter>
<clipPath id="clip0_23_611">
<rect width="46" height="46" fill="white" transform="translate(0 0.5)"/>
</clipPath>
</defs>
</svg>
