<svg width="43" height="43" viewBox="0 0 43 43" fill="none" xmlns="http://www.w3.org/2000/svg">
<g clip-path="url(#clip0_68_718)">
<path d="M41.773 30.3855L32.3667 26.3543C31.9649 26.183 31.5183 26.1469 31.0942 26.2514C30.6701 26.356 30.2914 26.5954 30.0152 26.9338L25.8496 32.0232C19.312 28.9408 14.0508 23.6796 10.9684 17.142L16.0578 12.9764C16.3968 12.7007 16.6368 12.322 16.7414 11.8977C16.8459 11.4734 16.8094 11.0265 16.6373 10.6248L12.6061 1.21858C12.4172 0.785568 12.0831 0.432025 11.6615 0.218917C11.2399 0.0058094 10.7571 -0.0535051 10.2965 0.0512014L1.56211 2.06683C1.11797 2.16939 0.721716 2.41946 0.438008 2.77623C0.1543 3.133 -0.000102311 3.5754 5.08627e-08 4.03122C5.08627e-08 25.5732 17.4604 43 38.9688 43C39.4247 43.0003 39.8673 42.846 40.2243 42.5622C40.5812 42.2785 40.8314 41.8821 40.934 41.4379L42.9496 32.7035C43.0536 32.2406 42.9931 31.7559 42.7783 31.3328C42.5636 30.9098 42.2081 30.5748 41.773 30.3855Z" fill="#C2AAB1"/>
</g>
<defs>
<clipPath id="clip0_68_718">
<rect width="43" height="43" fill="white"/>
</clipPath>
</defs>
</svg>
