<svg width="50" height="41" viewBox="0 0 50 41" fill="none" xmlns="http://www.w3.org/2000/svg">
<g filter="url(#filter0_d_23_593)">
<path d="M50 14.6947V15.9724C50 17.031 49.0859 17.8891 47.9583 17.8891H47.2778L45.0564 32.4868C44.769 34.3752 43.0462 35.778 41.0141 35.778H9.98589C7.95383 35.778 6.23101 34.3752 5.94356 32.4868L3.72222 17.8891H3.04167C1.91407 17.8891 1 17.031 1 15.9724V14.6947C1 13.6361 1.91407 12.778 3.04167 12.778H8.77033L17.854 1.05272C18.7383 -0.0886591 20.4408 -0.3411 21.6567 0.489056C22.8726 1.31921 23.1415 2.91747 22.2572 4.05893L15.5024 12.778H35.4976L28.7428 4.05885C27.8586 2.91747 28.1275 1.31913 29.3434 0.488976C30.5591 -0.34118 32.2617 -0.0888188 33.146 1.05264L42.2297 12.778H47.9583C49.0859 12.778 50 13.6361 50 14.6947ZM27.5417 28.7502V19.8058C27.5417 18.7472 26.6276 17.8891 25.5 17.8891C24.3724 17.8891 23.4583 18.7472 23.4583 19.8058V28.7502C23.4583 29.8088 24.3724 30.6669 25.5 30.6669C26.6276 30.6669 27.5417 29.8088 27.5417 28.7502ZM37.0694 28.7502V19.8058C37.0694 18.7472 36.1554 17.8891 35.0278 17.8891C33.9002 17.8891 32.9861 18.7472 32.9861 19.8058V28.7502C32.9861 29.8088 33.9002 30.6669 35.0278 30.6669C36.1554 30.6669 37.0694 29.8088 37.0694 28.7502ZM18.0139 28.7502V19.8058C18.0139 18.7472 17.0998 17.8891 15.9722 17.8891C14.8446 17.8891 13.9306 18.7472 13.9306 19.8058V28.7502C13.9306 29.8088 14.8446 30.6669 15.9722 30.6669C17.0998 30.6669 18.0139 29.8088 18.0139 28.7502Z" fill="#C2AAB1"/>
<path d="M47.2778 17.3891H46.8481L46.7835 17.8139L44.5621 32.4115C44.3153 34.033 42.8228 35.278 41.0141 35.278H9.98589C8.17724 35.278 6.68468 34.033 6.43786 32.4115L4.21653 17.8139L4.15189 17.3891H3.72222H3.04167C2.15999 17.3891 1.5 16.7256 1.5 15.9724V14.6947C1.5 13.9415 2.15999 13.278 3.04167 13.278H8.77033H9.01546L9.16559 13.0842L18.2493 1.35894C18.2493 1.35894 18.2493 1.35893 18.2493 1.35893C18.9665 0.433211 20.3703 0.216227 21.3748 0.901999C22.3612 1.57547 22.5637 2.84679 21.8619 3.75271L15.1071 12.4718L14.4825 13.278H15.5024H35.4976H36.5175L35.8929 12.4718L29.1381 3.75264L29.1381 3.75262C28.4363 2.84681 28.6388 1.57542 29.6253 0.90191L29.6253 0.901892C30.6295 0.216157 32.0336 0.433058 32.7508 1.35885L41.8344 13.0842L41.9845 13.278H42.2297H47.9583C48.84 13.278 49.5 13.9415 49.5 14.6947V15.9724C49.5 16.7256 48.84 17.3891 47.9583 17.3891H47.2778ZM28.0417 28.7502V19.8058C28.0417 18.4418 26.8735 17.3891 25.5 17.3891C24.1265 17.3891 22.9583 18.4418 22.9583 19.8058V28.7502C22.9583 30.1142 24.1265 31.1669 25.5 31.1669C26.8735 31.1669 28.0417 30.1142 28.0417 28.7502ZM37.5694 28.7502V19.8058C37.5694 18.4418 36.4013 17.3891 35.0278 17.3891C33.6543 17.3891 32.4861 18.4418 32.4861 19.8058V28.7502C32.4861 30.1142 33.6543 31.1669 35.0278 31.1669C36.4013 31.1669 37.5694 30.1142 37.5694 28.7502ZM18.5139 28.7502V19.8058C18.5139 18.4418 17.3457 17.3891 15.9722 17.3891C14.5987 17.3891 13.4306 18.4418 13.4306 19.8058V28.7502C13.4306 30.1142 14.5987 31.1669 15.9722 31.1669C17.3457 31.1669 18.5139 30.1142 18.5139 28.7502Z" stroke="#FFE6ED"/>
</g>
<defs>
<filter id="filter0_d_23_593" x="-3" y="0" width="57" height="43.778" filterUnits="userSpaceOnUse" color-interpolation-filters="sRGB">
<feFlood flood-opacity="0" result="BackgroundImageFix"/>
<feColorMatrix in="SourceAlpha" type="matrix" values="0 0 0 0 0 0 0 0 0 0 0 0 0 0 0 0 0 0 127 0" result="hardAlpha"/>
<feOffset dy="4"/>
<feGaussianBlur stdDeviation="2"/>
<feComposite in2="hardAlpha" operator="out"/>
<feColorMatrix type="matrix" values="0 0 0 0 0 0 0 0 0 0 0 0 0 0 0 0 0 0 0.25 0"/>
<feBlend mode="normal" in2="BackgroundImageFix" result="effect1_dropShadow_23_593"/>
<feBlend mode="normal" in="SourceGraphic" in2="effect1_dropShadow_23_593" result="shape"/>
</filter>
</defs>
</svg>
